#!OML:ASF F:\VICON\USERDATA\Patient Classification 1\PLAYGROUND\JustinFriday\JustinFriday.ASF
:FULLY-SPECIFIED
:DEGREES
2118
root -20.0187 27.6523 -10.1979 327.98 75.3772 -48.3431
lowerback 26.8753 0.565184 -2.02473
upperback 6.08571 0.990954 3.74028
thorax -8.19408 0.709447 4.99066
lowerneck -0.950805 -13.0663 -5.01117
upperneck -23.5317 -13.7759 24.1609
head -4.50595 -7.94148 8.82816
rclavicle 1.03368e-014 -7.95139e-015
rhumerus 37.9684 24.8316 -72.5012
rradius 45.731
rwrist 17.0518
rhand -34.9544 -5.94522
rfingers 7.12502
rthumb -8.10081 -35.7699
lclavicle 1.03368e-014 -7.95139e-015
lhumerus 19.2132 -14.7223 53.9117
lradius 59.0128
lwrist -19.7708
lhand -28.0612 -17.9308
lfingers 7.12502
lthumb -1.445 12.0441
rfemur -72.598 -7.32888 32.4065
rtibia 104.902
rfoot -29.3673 2.64032
rtoes 3.133
lfemur -9.97235 9.46145 -15.8301
ltibia 1.82882e-014
lfoot -3.6228 2.05346
ltoes 8.96826
2119
root -20.004 27.6869 -10.2407 328.901 76.3409 -47.3564
lowerback 27.1367 -0.0535656 -2.0133
upperback 6.00614 0.166234 3.4237
thorax -8.32707 0.318995 4.90825
lowerneck -0.846936 -13.0399 -5.68857
upperneck -23.4359 -13.7706 24.4777
head -4.39718 -7.91396 9.02918
rclavicle 3.4191e-014 1.51076e-014
rhumerus 38.5695 25.8378 -72.1331
rradius 45.3643
rwrist 16.9359
rhand -34.9476 -6.9755
rfingers 7.12502
rthumb -8.09422 -36.8005
lclavicle 3.4191e-014 1.51076e-014
lhumerus 18.4946 -13.7159 54.4758
lradius 58.4521
lwrist -20.2792
lhand -28.889 -18.3257
lfingers 7.12502
lthumb -2.24449 11.6423
rfemur -72.9598 -6.99889 31.3003
rtibia 104.34
rfoot -29.323 1.50875
rtoes 0.389056
lfemur -10.0235 8.66906 -16.6132
ltibia -4.21423e-014
lfoot -3.61234 1.86572
ltoes 15.2411
2120
root -19.9815 27.7349 -10.268 331.648 76.1536 -44.7755
lowerback 27.0342 0.0268112 -1.76824
upperback 5.9465 0.319857 3.33774
thorax -8.35876 0.384412 4.61606
lowerneck -0.956415 -13.4986 -7.88914
upperneck -23.3824 -14.4733 25.4463
head -3.92976 -8.15416 9.5994
rclavicle 7.95139e-015 -2.78299e-014
rhumerus 39.2908 26.1993 -71.3423
rradius 44.7389
rwrist 16.6245
rhand -35.3776 -9.60611
rfingers 7.12502
rthumb -8.50921 -39.4147
lclavicle 7.95139e-015 -2.78299e-014
lhumerus 18.4393 -13.1292 55.7847
lradius 57.7056
lwrist -21.4514
lhand -29.7273 -18.7056
lfingers 7.12502
lthumb -3.05413 11.2523
rfemur -73.134 -4.9041 30.3677
rtibia 103.583
rfoot -29.2141 0.597024
rtoes -0.481207
lfemur -10.1452 9.05307 -17.1528
ltibia 1.43125e-014
lfoot -3.5392 1.99266
ltoes 13.5537
2121
root -19.9549 27.7145 -10.2652 333.344 75.4545 -42.9551
lowerback 26.9821 0.352346 -1.99035
upperback 5.97983 0.666098 3.28668
thorax -8.328 0.549168 4.57107
lowerneck -0.220922 -13.6415 -8.30943
upperneck -23.8107 -14.654 25.6982
head -4.08496 -8.28804 9.82928
rclavicle 2.0276e-014 -2.22639e-014
rhumerus 39.7603 26.5364 -71.0022
rradius 44.2402
rwrist 16.573
rhand -35.3473 -11.7647
rfingers 7.12502
rthumb -8.47999 -41.5744
lclavicle 2.0276e-014 -2.22639e-014
lhumerus 18.3527 -12.9086 56.2783
lradius 57.1926
lwrist -22.1162
lhand -30.1547 -18.9409
lfingers 7.12502
lthumb -3.46681 11.0107
rfemur -73.6031 -5.35603 31.0701
rtibia 103.165
rfoot -29.2763 2.22708
rtoes 0.70541
lfemur -9.7794 9.79623 -17.204
ltibia 2.3059e-014
lfoot -3.80028 2.29932
ltoes 10.2062
2122
root -19.9422 27.7054 -10.2751 334.53 74.9682 -41.8579
lowerback 26.787 0.346298 -2.17646
upperback 5.94131 0.588422 3.18822
thorax -8.26569 0.510275 4.59287
lowerneck 0.580215 -13.4342 -7.46845
upperneck -24.257 -14.3234 25.2464
head -4.55051 -8.21958 9.69803
rclavicle -2.8625e-014 -1.82882e-014
rhumerus 40.2586 27.4001 -70.5952
rradius 44.0552
rwrist 16.4155
rhand -34.1748 -10.8288
rfingers 7.12502
rthumb -7.34831 -40.6812
lclavicle -2.8625e-014 -1.82882e-014
lhumerus 17.9334 -12.4688 56.2064
lradius 56.7849
lwrist -22.1329
lhand -30.4355 -19.3661
lfingers 7.12502
lthumb -3.73807 10.5809
rfemur -74.2054 -5.68716 31.6859
rtibia 102.621
rfoot -29.2662 3.51845
rtoes 2.00668
lfemur -9.71555 10.2941 -17.206
ltibia -1.35174e-014
lfoot -3.90939 1.88579
ltoes 13.6531
2123
root -19.9245 27.7248 -10.3206 333.034 75.3455 -43.2477
lowerback 27.5267 0.687844 -1.89323
upperback 5.7875 1.10652 3.18491
thorax -8.85661 0.76378 4.25849
lowerneck 0.279268 -13.8477 -3.27134
upperneck -24.9026 -14.7762 22.9769
head -5.3019 -8.60819 8.39288
rclavicle 0 -7.95139e-015
rhumerus 39.74 26.2695 -69.4062
rradius 44.4493
rwrist 15.825
rhand -33.1352 -10.8862
rfingers 7.12502
rthumb -6.34477 -40.7711
lclavicle 0 -7.95139e-015
lhumerus 19.0711 -13.8792 56.3529
lradius 56.2216
lwrist -21.8887
lhand -30.7721 -19.8912
lfingers 7.12502
lthumb -4.06309 10.0498
rfemur -74.0633 -5.75832 31.6938
rtibia 101.86
rfoot -29.3539 3.46642
rtoes 2.47479
lfemur -9.60455 9.675 -17.191
ltibia 2.38542e-015
lfoot -3.76954 1.76963
ltoes 14.9969
2124
root -19.8986 27.7004 -10.3196 333.651 75.2733 -42.3648
lowerback 27.4209 0.991135 -1.55941
upperback 5.93543 1.62453 3.43106
thorax -8.68337 1.00319 4.16082
lowerneck 0.958244 -14.3588 -4.19313
upperneck -25.67 -15.4847 23.1293
head -5.44925 -8.95258 8.67082
rclavicle 3.57812e-015 3.26007e-014
rhumerus 40.3903 25.7873 -69.4529
rradius 42.952
rwrist 17.3114
rhand -32.2488 -11.9367
rfingers 7.12502
rthumb -5.48895 -41.8457
lclavicle 3.57812e-015 3.26007e-014
lhumerus 19.6347 -14.4538 57.504
lradius 55.6961
lwrist -21.9062
lhand -31.1503 -20.2998
lfingers 7.12502
lthumb -4.42829 9.63388
rfemur -74.2498 -7.38341 32.5206
rtibia 101.365
rfoot -29.4257 4.14624
rtoes 0.810519
lfemur -9.26273 9.73266 -17.3907
ltibia 1.90833e-014
lfoot -4.03202 2.44228
ltoes 12.4257
2125
root -19.8721 27.704 -10.2961 335.232 75.0199 -40.479
lowerback 27.1772 1.0243 -2.53191
upperback 6.13595 1.41533 3.55236
thorax -8.33547 0.918866 4.93458
lowerneck 1.69846 -14.1615 -4.8191
upperneck -25.9865 -15.2211 23.2887
head -5.63147 -8.83254 8.919
rclavicle 5.56597e-015 3.97569e-015
rhumerus 41.1041 27.506 -65.6564
rradius 44.8208
rwrist 14.4019
rhand -30.6878 -12.823
rfingers 7.12502
rthumb -3.9817 -42.7655
lclavicle 5.56597e-015 3.97569e-015
lhumerus 18.9198 -13.7398 57.4852
lradius 55.4699
lwrist -21.673
lhand -31.6678 -20.7025
lfingers 7.12502
lthumb -4.92795 9.22023
rfemur -73.7442 -5.5705 31.9167
rtibia 100.675
rfoot -29.4831 1.7877
rtoes -2.75625
lfemur -8.80036 10.0985 -17.5858
ltibia 1.90833e-014
lfoot -4.42227 2.76263
ltoes 11.6867
2126
root -19.851 27.7061 -10.2826 334.557 74.7748 -40.9666
lowerback 27.6215 1.59732 -3.45933
upperback 5.78633 1.96107 4.27267
thorax -9.05942 1.22548 6.1175
lowerneck 2.8236 -14.2958 -4.08222
upperneck -26.5411 -15.4941 22.1555
head -6.17236 -8.99994 8.62129
rclavicle -2.10712e-014 1.15295e-014
rhumerus 40.8561 28.1904 -64.2915
rradius 44.7856
rwrist 13.9945
rhand -29.191 -13.4026
rfingers 7.12502
rthumb -2.5362 -43.3673
lclavicle -2.10712e-014 1.15295e-014
lhumerus 18.1527 -14.2461 58.7675
lradius 55.1566
lwrist -21.7233
lhand -32.3137 -21.1558
lfingers 7.12502
lthumb -5.55159 8.75151
rfemur -73.5095 -5.97454 32.6697
rtibia 99.9861
rfoot -29.5886 2.31961
rtoes -2.00993
lfemur -8.58146 10.1876 -17.2813
ltibia -9.54166e-015
lfoot -4.37193 2.84133
ltoes 9.24663
2127
root -19.8295 27.724 -10.2716 333.522 74.3792 -41.8478
lowerback 26.8904 1.25474 -2.92343
upperback 6.43187 1.72082 4.44957
thorax -7.92598 1.07397 6.07292
lowerneck 2.36806 -14.4114 -6.50267
upperneck -26.5388 -15.7204 23.46
head -5.64813 -8.99816 9.29854
rclavicle -3.97569e-016 -3.06128e-014
rhumerus 42.6547 28.7996 -63.4647
rradius 44.3512
rwrist 14.6028
rhand -27.2716 -13.1031
rfingers 7.12502
rthumb -0.68236 -43.0818
lclavicle -3.97569e-016 -3.06128e-014
lhumerus 18.2568 -12.9946 59.002
lradius 54.7571
lwrist -22.0603
lhand -33.0935 -21.7885
lfingers 7.12502
lthumb -6.30452 8.09766
rfemur -72.9058 -4.4665 32.7511
rtibia 99.1522
rfoot -29.3515 1.5161
rtoes -2.74702
lfemur -8.26348 10.3664 -16.7892
ltibia -1.11319e-014
lfoot -4.51362 3.28556
ltoes 5.10695
